<svg viewBox="-51.2 -51.2 614.40 614.40" version="1.1" xmlns="http://www.w3.org/2000/svg" xmlns:xlink="http://www.w3.org/1999/xlink" fill="#000000"><g id="SVGRepo_bgCarrier" stroke-width="0"><path transform="translate(-51.2, -51.2), scale(38.4)" fill="#ea4848" d="M9.166.33a2.25 2.25 0 00-2.332 0l-5.25 3.182A2.25 2.25 0 00.5 5.436v5.128a2.25 2.25 0 001.084 1.924l5.25 3.182a2.25 2.25 0 002.332 0l5.25-3.182a2.25 2.25 0 001.084-1.924V5.436a2.25 2.25 0 00-1.084-1.924L9.166.33z" strokewidth="0"></path></g><g id="SVGRepo_tracerCarrier" stroke-linecap="round" stroke-linejoin="round"></g><g id="SVGRepo_iconCarrier"> <title>cancel</title> <g id="Page-1" stroke="none" stroke-width="1" fill="none" fill-rule="evenodd"> <g id="work-case" fill="#000000" transform="translate(91.520000, 91.520000)"> <polygon id="Close" points="328.96 30.2933333 298.666667 1.42108547e-14 164.48 134.4 30.2933333 1.42108547e-14 1.42108547e-14 30.2933333 134.4 164.48 1.42108547e-14 298.666667 30.2933333 328.96 164.48 194.56 298.666667 328.96 328.96 298.666667 194.56 164.48"> </polygon> </g> </g> </g></svg>