<svg viewBox="-2.4 -2.4 28.80 28.80" fill="none" xmlns="http://www.w3.org/2000/svg"><g id="SVGRepo_bgCarrier" stroke-width="0"><path transform="translate(-2.4, -2.4), scale(1.7999999999999998)" fill="#ec7e7e" d="M9.166.33a2.25 2.25 0 00-2.332 0l-5.25 3.182A2.25 2.25 0 00.5 5.436v5.128a2.25 2.25 0 001.084 1.924l5.25 3.182a2.25 2.25 0 002.332 0l5.25-3.182a2.25 2.25 0 001.084-1.924V5.436a2.25 2.25 0 00-1.084-1.924L9.166.33z" strokewidth="0"></path></g><g id="SVGRepo_tracerCarrier" stroke-linecap="round" stroke-linejoin="round"></g><g id="SVGRepo_iconCarrier"> <path d="M10 12V17" stroke="#000000" stroke-width="2" stroke-linecap="round" stroke-linejoin="round"></path> <path d="M14 12V17" stroke="#000000" stroke-width="2" stroke-linecap="round" stroke-linejoin="round"></path> <path d="M4 7H20" stroke="#000000" stroke-width="2" stroke-linecap="round" stroke-linejoin="round"></path> <path d="M6 10V18C6 19.6569 7.34315 21 9 21H15C16.6569 21 18 19.6569 18 18V10" stroke="#000000" stroke-width="2" stroke-linecap="round" stroke-linejoin="round"></path> <path d="M9 5C9 3.89543 9.89543 3 11 3H13C14.1046 3 15 3.89543 15 5V7H9V5Z" stroke="#000000" stroke-width="2" stroke-linecap="round" stroke-linejoin="round"></path> </g></svg>